PathFileType	4	(X/Y/Z)	Gait_latera_markers.trc
DataRate	CameraRate	NumFrames	NumMarkers	Units	OrigDataRate	OrigDataStartFrame	OrigNumFrames
100	100	10	38	m	100	37	86
Frame#	Time	RASI			RPSI			LPSI			LASI			RTROCH			RTHI			RTHI2			RTHI3			RTHI4			RKNE			RKNEM			RTIB			RTIB2			RTIB3			RTIB4			RANK			RANKM			RHEE			RTOE			RTOEL			RTOEM			LTROCH			LTHI			LTHI2			LTHI3			LTHI4			LKNE			LKNEM			LTIB			LTIB2			LTIB3			LTIB4			LANK			LANKM			LHEE			LTOE			LTOEL			LTOEM
		X1	Y1	Z1	X2	Y2	Z2	X3	Y3	Z3	X4	Y4	Z4	X5	Y5	Z5	X6	Y6	Z6	X7	Y7	Z7	X8	Y8	Z8	X9	Y9	Z9	X10	Y10	Z10	X11	Y11	Z11	X12	Y12	Z12	X13	Y13	Z13	X14	Y14	Z14	X15	Y15	Z15	X16	Y16	Z16	X17	Y17	Z17	X18	Y18	Z18	X19	Y19	Z19	X20	Y20	Z20	X21	Y21	Z21	X22	Y22	Z22	X23	Y23	Z23	X24	Y24	Z24	X25	Y25	Z25	X26	Y26	Z26	X27	Y27	Z27	X28	Y28	Z28	X29	Y29	Z29	X30	Y30	Z30	X31	Y31	Z31	X32	Y32	Z32	X33	Y33	Z33	X34	Y34	Z34	X35	Y35	Z35	X36	Y36	Z36	X37	Y37	Z37	X38	Y38	Z38

37	0.360000	-0.297865	0.975185	-0.457819	-0.226397	1.009459	-0.639418	-0.131176	0.999410	-0.631284	-0.072826	0.981691	-0.441507	-0.352453	0.895838	-0.525239	-0.366733	0.774649	-0.510157	-0.368121	0.795381	-0.446825	-0.374078	0.718954	-0.415849	-0.372691	0.694253	-0.473665	-0.370480	0.552471	-0.425615	-0.257295	0.558427	-0.381668	-0.371877	0.459044	-0.505242	-0.355199	0.416426	-0.461407	-0.337564	0.355517	-0.521109	-0.356614	0.402768	-0.562990	-0.272340	0.258691	-0.709073	-0.215321	0.234173	-0.659740	-0.206416	0.253114	-0.768154	-0.315953	0.101192	-0.626821	-0.344787	0.126602	-0.697881	-0.255137	0.086451	-0.636388	-0.012587	0.915440	-0.508884	-0.017672	0.700566	-0.477853	-0.026345	0.705328	-0.415309	-0.041069	0.623530	-0.413041	-0.033475	0.613906	-0.476886	-0.056141	0.530944	-0.449747	-0.159122	0.552336	-0.434925	-0.052555	0.306932	-0.492677	-0.068155	0.312306	-0.430197	-0.084404	0.225606	-0.439677	-0.069072	0.226142	-0.500138	-0.102915	0.093178	-0.499965	-0.170482	0.121859	-0.458677	-0.161275	0.056956	-0.548543	-0.091075	0.059980	-0.321778	-0.049845	0.043497	-0.378066	-0.146069	0.054055	-0.330305
38	0.370000	-0.296739	0.975689	-0.446763	-0.226517	1.010373	-0.628440	-0.131104	0.999804	-0.620234	-0.071472	0.982156	-0.430820	-0.350274	0.897963	-0.510020	-0.366535	0.775768	-0.495288	-0.367870	0.797807	-0.432062	-0.373657	0.722385	-0.398203	-0.372565	0.696230	-0.457096	-0.370531	0.555648	-0.406300	-0.256964	0.561274	-0.364159	-0.370338	0.458342	-0.483420	-0.358515	0.419139	-0.436402	-0.340793	0.355505	-0.493877	-0.357021	0.400188	-0.538597	-0.272927	0.251240	-0.680078	-0.215666	0.228312	-0.629443	-0.207480	0.242199	-0.739260	-0.316055	0.097992	-0.590073	-0.345277	0.119812	-0.661232	-0.256325	0.082435	-0.598750	-0.017879	0.909907	-0.507459	-0.017631	0.700645	-0.470512	-0.025764	0.704828	-0.409150	-0.042028	0.623569	-0.406608	-0.033933	0.614005	-0.470350	-0.055807	0.530453	-0.445200	-0.159134	0.552211	-0.430378	-0.052433	0.307421	-0.490906	-0.068524	0.311766	-0.428656	-0.084624	0.225645	-0.438480	-0.069021	0.226384	-0.498881	-0.103023	0.093479	-0.499743	-0.170647	0.121862	-0.458891	-0.161168	0.057171	-0.548409	-0.091097	0.059670	-0.321898	-0.049877	0.043439	-0.378003	-0.146035	0.054008	-0.330196
39	0.380000	-0.295676	0.976918	-0.434582	-0.226491	1.010832	-0.617297	-0.131009	0.999965	-0.609283	-0.070396	0.982540	-0.420431	-0.350225	0.899056	-0.497403	-0.366233	0.777025	-0.480370	-0.367746	0.800190	-0.418014	-0.373299	0.725401	-0.382350	-0.372377	0.698122	-0.440800	-0.369668	0.558182	-0.386949	-0.256805	0.566134	-0.345279	-0.371800	0.457512	-0.460696	-0.354037	0.418502	-0.414365	-0.340058	0.354217	-0.468303	-0.357073	0.397088	-0.514294	-0.273644	0.242767	-0.650436	-0.215909	0.221874	-0.598794	-0.208270	0.230885	-0.709730	-0.316902	0.094767	-0.553479	-0.346150	0.112480	-0.625274	-0.256361	0.078227	-0.561226	-0.017517	0.910308	-0.498629	-0.017912	0.701189	-0.464071	-0.025759	0.704305	-0.402394	-0.041857	0.623001	-0.401346	-0.034191	0.614330	-0.464803	-0.055461	0.529966	-0.441484	-0.159093	0.552129	-0.426028	-0.052533	0.307655	-0.489166	-0.068292	0.312017	-0.426856	-0.084547	0.225493	-0.437514	-0.069052	0.226791	-0.497687	-0.103098	0.093716	-0.499559	-0.170902	0.121799	-0.458380	-0.161331	0.057247	-0.547818	-0.091368	0.059304	-0.321340	-0.049888	0.043355	-0.377983	-0.146027	0.053943	-0.330020
40	0.390000	-0.294971	0.976572	-0.424776	-0.226465	1.010942	-0.606178	-0.131067	1.000121	-0.598328	-0.069200	0.982673	-0.409904	-0.351245	0.900389	-0.484467	-0.366227	0.778130	-0.465736	-0.367277	0.802466	-0.403537	-0.372799	0.728382	-0.366485	-0.372128	0.699965	-0.424663	-0.368807	0.560728	-0.368519	-0.256303	0.569634	-0.328230	-0.371126	0.456835	-0.439284	-0.356799	0.421660	-0.389865	-0.336680	0.351035	-0.443575	-0.357214	0.393527	-0.489320	-0.274586	0.233709	-0.620273	-0.216636	0.215549	-0.568181	-0.209446	0.219455	-0.680009	-0.317584	0.091075	-0.515809	-0.347020	0.104956	-0.588017	-0.257332	0.074001	-0.522853	-0.016992	0.910323	-0.487957	-0.018160	0.701767	-0.457838	-0.026377	0.704160	-0.395236	-0.041655	0.622505	-0.395971	-0.034541	0.614793	-0.459587	-0.055271	0.529887	-0.437872	-0.159036	0.551827	-0.421420	-0.052623	0.308570	-0.488142	-0.068619	0.311522	-0.425336	-0.084465	0.225613	-0.436459	-0.068997	0.227313	-0.496775	-0.102913	0.094156	-0.499400	-0.170737	0.122131	-0.457893	-0.161337	0.057302	-0.547752	-0.090869	0.059634	-0.320916	-0.049844	0.043297	-0.377930	-0.146151	0.053418	-0.330147
41	0.400000	-0.293991	0.976901	-0.413332	-0.226482	1.010779	-0.595052	-0.131170	1.000000	-0.587259	-0.068430	0.982682	-0.399411	-0.351253	0.900985	-0.472189	-0.365847	0.779031	-0.451004	-0.366868	0.804151	-0.389406	-0.372252	0.731072	-0.351215	-0.371820	0.701552	-0.408727	-0.367555	0.563000	-0.350365	-0.255775	0.571864	-0.312467	-0.370691	0.455779	-0.417861	-0.353005	0.420919	-0.367986	-0.339498	0.352262	-0.416052	-0.357415	0.390320	-0.465440	-0.275699	0.224318	-0.589672	-0.217736	0.208949	-0.537461	-0.210700	0.206401	-0.648646	-0.318513	0.087282	-0.477535	-0.348252	0.097426	-0.550069	-0.258474	0.069819	-0.483729	-0.016921	0.910546	-0.477899	-0.018410	0.702015	-0.451030	-0.026379	0.703689	-0.388506	-0.041603	0.622041	-0.390621	-0.034898	0.615575	-0.454707	-0.055396	0.529962	-0.434578	-0.158906	0.551368	-0.416845	-0.052414	0.308645	-0.486208	-0.068081	0.311965	-0.423589	-0.084403	0.225587	-0.435533	-0.068992	0.227756	-0.495762	-0.102789	0.094742	-0.499343	-0.170752	0.122352	-0.457650	-0.162098	0.056842	-0.547562	-0.090835	0.059466	-0.320853	-0.049838	0.043237	-0.377878	-0.146080	0.053366	-0.330025
42	0.410000	-0.293530	0.977136	-0.402121	-0.226513	1.010509	-0.583994	-0.131245	1.000095	-0.576461	-0.067561	0.982642	-0.388994	-0.351069	0.901325	-0.459974	-0.366034	0.779832	-0.436886	-0.366361	0.805895	-0.375534	-0.371558	0.733193	-0.336200	-0.371579	0.703038	-0.393241	-0.367266	0.565029	-0.334298	-0.255049	0.574592	-0.296751	-0.370319	0.454506	-0.397272	-0.355176	0.423817	-0.345205	-0.339302	0.350839	-0.390478	-0.356517	0.386887	-0.442035	-0.276789	0.214464	-0.558523	-0.218855	0.200994	-0.504860	-0.212461	0.192924	-0.616912	-0.319484	0.083870	-0.438198	-0.350095	0.090226	-0.511612	-0.259852	0.065598	-0.443884	-0.016642	0.910635	-0.467985	-0.018572	0.702459	-0.444524	-0.026341	0.703103	-0.381978	-0.041491	0.621142	-0.385693	-0.035180	0.615951	-0.449408	-0.055386	0.529895	-0.431156	-0.158908	0.550622	-0.413421	-0.052654	0.309157	-0.484914	-0.068471	0.311496	-0.422298	-0.084348	0.225647	-0.434608	-0.069124	0.228330	-0.494921	-0.102819	0.094947	-0.499113	-0.170772	0.122463	-0.457387	-0.161498	0.057478	-0.547804	-0.090401	0.059641	-0.320840	-0.049777	0.043165	-0.377860	-0.146045	0.053283	-0.329973
43	0.420000	-0.293011	0.977192	-0.390810	-0.226717	1.010098	-0.572734	-0.131492	0.999970	-0.565445	-0.067005	0.982586	-0.377944	-0.349589	0.900717	-0.448296	-0.365845	0.780226	-0.422424	-0.365720	0.807455	-0.361743	-0.370521	0.735048	-0.321400	-0.370974	0.704140	-0.377694	-0.364921	0.566690	-0.315618	-0.254500	0.576843	-0.281997	-0.369241	0.453059	-0.377153	-0.351986	0.422894	-0.324278	-0.339324	0.349391	-0.365370	-0.356551	0.383352	-0.418573	-0.278119	0.204246	-0.526256	-0.220332	0.193491	-0.472337	-0.214094	0.178623	-0.583722	-0.321001	0.080844	-0.398751	-0.352240	0.083716	-0.472067	-0.261517	0.061773	-0.403792	-0.016514	0.910872	-0.457908	-0.018725	0.702668	-0.437513	-0.026284	0.702062	-0.375705	-0.041788	0.620570	-0.380209	-0.035377	0.616261	-0.443821	-0.055410	0.529723	-0.427457	-0.158578	0.550097	-0.408472	-0.052875	0.309465	-0.483462	-0.067712	0.311993	-0.420536	-0.084030	0.225661	-0.433659	-0.069199	0.228754	-0.493950	-0.102911	0.095267	-0.498974	-0.170777	0.122537	-0.457026	-0.162425	0.055905	-0.546377	-0.090477	0.059501	-0.320733	-0.049764	0.043091	-0.377814	-0.146084	0.053190	-0.329938
44	0.430000	-0.292726	0.977047	-0.379734	-0.226910	1.009834	-0.561707	-0.131788	0.999926	-0.554624	-0.066737	0.982109	-0.367699	-0.350858	0.901066	-0.436392	-0.365903	0.780530	-0.408410	-0.365008	0.808363	-0.348015	-0.369351	0.736544	-0.306901	-0.370437	0.704818	-0.362692	-0.363840	0.568221	-0.300734	-0.253098	0.578333	-0.267956	-0.367993	0.451767	-0.357557	-0.353712	0.426254	-0.302165	-0.339449	0.348025	-0.340639	-0.355939	0.379434	-0.395617	-0.279336	0.193494	-0.493377	-0.221562	0.185240	-0.439288	-0.216057	0.164400	-0.549984	-0.322703	0.078238	-0.358999	-0.354439	0.077245	-0.432033	-0.264658	0.059350	-0.362404	-0.016631	0.910862	-0.448342	-0.019149	0.701386	-0.428868	-0.027083	0.701710	-0.368203	-0.042364	0.619730	-0.374608	-0.036356	0.615458	-0.436505	-0.055562	0.529642	-0.423690	-0.156772	0.550228	-0.400983	-0.053024	0.309742	-0.481883	-0.067665	0.311599	-0.419067	-0.084045	0.225675	-0.432617	-0.069261	0.229335	-0.493015	-0.102961	0.095442	-0.498687	-0.170552	0.122797	-0.456617	-0.162414	0.055987	-0.546349	-0.090449	0.059339	-0.320654	-0.049672	0.043103	-0.377946	-0.145973	0.053320	-0.329346
45	0.440000	-0.292288	0.976566	-0.368420	-0.227249	1.009525	-0.550476	-0.132249	0.999839	-0.543780	-0.066045	0.981575	-0.357012	-0.350853	0.900576	-0.424900	-0.366224	0.780803	-0.395610	-0.364286	0.808790	-0.334580	-0.368150	0.737255	-0.293371	-0.369855	0.705302	-0.347345	-0.362011	0.569027	-0.285590	-0.251542	0.579296	-0.254708	-0.366849	0.449738	-0.338713	-0.353068	0.426788	-0.281607	-0.339445	0.346952	-0.316082	-0.355179	0.375731	-0.372956	-0.280901	0.183089	-0.459928	-0.223431	0.177337	-0.406011	-0.218632	0.150419	-0.515703	-0.324671	0.076103	-0.319038	-0.356933	0.071151	-0.391567	-0.266970	0.056234	-0.321471	-0.016589	0.911056	-0.438684	-0.019233	0.701428	-0.421769	-0.027238	0.700640	-0.361259	-0.042897	0.619039	-0.368971	-0.036272	0.617735	-0.433762	-0.055628	0.529451	-0.419665	-0.160388	0.549115	-0.402024	-0.053068	0.309953	-0.479983	-0.067769	0.311653	-0.417154	-0.083911	0.225499	-0.431461	-0.069372	0.229915	-0.492014	-0.102983	0.096044	-0.498656	-0.170571	0.123088	-0.456534	-0.162005	0.056787	-0.547158	-0.090388	0.059122	-0.320550	-0.049635	0.043086	-0.377918	-0.145913	0.053271	-0.329285
46	0.450000	-0.292105	0.975955	-0.357259	-0.227741	1.009189	-0.539398	-0.132586	0.999737	-0.532903	-0.066155	0.980768	-0.346472	-0.350734	0.899808	-0.413333	-0.365991	0.780235	-0.380613	-0.363588	0.808830	-0.321390	-0.366948	0.737644	-0.279968	-0.369114	0.705455	-0.333438	-0.359983	0.569519	-0.271224	-0.249576	0.579790	-0.241882	-0.365585	0.447127	-0.320233	-0.351937	0.427045	-0.261865	-0.339486	0.345385	-0.291869	-0.354936	0.371368	-0.350324	-0.282841	0.172705	-0.426108	-0.225101	0.169483	-0.372123	-0.221059	0.136607	-0.480341	-0.326592	0.074339	-0.278908	-0.359486	0.065559	-0.350852	-0.269191	0.053606	-0.280349	-0.016799	0.910385	-0.429212	-0.019329	0.701236	-0.414654	-0.027675	0.699429	-0.354408	-0.043556	0.618092	-0.363009	-0.036485	0.615421	-0.425051	-0.055790	0.529301	-0.415603	-0.160109	0.549196	-0.397564	-0.053213	0.310550	-0.478375	-0.067701	0.311477	-0.415315	-0.083766	0.225630	-0.430219	-0.069329	0.230196	-0.490614	-0.103023	0.096429	-0.498418	-0.170751	0.123079	-0.456175	-0.162202	0.056521	-0.546644	-0.090303	0.058909	-0.320440	-0.049610	0.043043	-0.377882	-0.145799	0.053267	-0.329298
